<?xml version="1.0" encoding="utf-8"?>
<!-- Generator: Adobe Illustrator 19.2.0, SVG Export Plug-In . SVG Version: 6.00 Build 0)  -->
<svg version="1.1" xmlns="http://www.w3.org/2000/svg" xmlns:xlink="http://www.w3.org/1999/xlink" x="0px" y="0px"
	 viewBox="0 0 326.4 442.5" style="enable-background:new 0 0 326.4 442.5;" xml:space="preserve">
<style type="text/css">
	.st0{font-family:'Avenir-Light';}
	.st1{font-size:92px;}
	.st2{display:none;}
	.st3{display:inline;fill:#FFF200;stroke:#000000;stroke-miterlimit:10;}
</style>
<g id="Layer_3">
	<path d="M309,249.9c-29.4,44.3-80.2,80.4-133.4,80.4C88.6,330.3,17,258.6,17,171.6S88.6,12.9,175.7,12.9
		c53.9,0,104.2,27.4,133.4,72.7c0,0-104.4,51.3-116.9,51.6c-4.1,0.1-14.5,0.4-21.7,0.3c-14.7,0-26,0.1-35.2,3.7
		c-19.4,8.6-20.8,42.3,2.4,51c7.6,2.6,10.7,1.6,18.4,2.8l8.8,0.7l0.1,41.3l24.5,0.4l0-39.3l5.6,0.6C206.8,202.8,309,249.9,309,249.9
		"/>
	<text transform="matrix(1 0 0 1 23.1941 425.1646)" class="st0 st1">Char.la</text>
</g>
<g id="Layer_2" class="st2">
	<path class="st3" d="M346.6,252.9v75.8c0,5.3-3,9.6-9.6,9.6c-1.6,0-5.5-3.4-10.4-8.5V126.2c4.9-5.1,8.8-8.5,10.4-8.5
		c7.2,0,9.6,4.3,9.6,9.6v77.8c13,0.4,25.1,10.9,25.1,23.9C371.7,242,359.6,252.5,346.6,252.9L346.6,252.9z M192.3,271.4
		c0.6,0,0-86.7,0-86.7c65.9,0,104.9-28.9,125.5-48.7v184.2C297.2,300.3,258.2,271.4,192.3,271.4z M154,347.3l-19.2-76.1h-19.2
		c0,0-5.7-12.9-8.3-28.8c-4.9,0-9.2,0-10.9,0c-5.3,0-9.6-4.3-9.6-9.6v-9.6c0-5.3,4.3-9.6,9.6-9.6c1.7,0,6,0,10.9,0
		c2.6-15.8,8.3-28.8,8.3-28.8h67.1v86.3h-19.2l2.4,9.6h9.6l4.8,19.2h-9.5l11.9,47.4L154,347.3L154,347.3z"/>
</g>
</svg>
