<?xml version="1.0" standalone="no"?>
<!DOCTYPE svg PUBLIC "-//W3C//DTD SVG 20010904//EN"
 "http://www.w3.org/TR/2001/REC-SVG-20010904/DTD/svg10.dtd">
<svg version="1.0" xmlns="http://www.w3.org/2000/svg"
 width="319.000000pt" height="319.000000pt" viewBox="0 0 319.000000 319.000000"
 preserveAspectRatio="xMidYMid meet">
<metadata>
Created by potrace 1.11, written by Peter Selinger 2001-2013
</metadata>
<g transform="translate(0.000000,319.000000) scale(0.100000,-0.100000)"
fill="#000000" stroke="none">
<path d="M1648 3185 c-2 -1 -37 -5 -79 -8 -462 -36 -918 -319 -1191 -740 -95
-145 -191 -391 -214 -544 -3 -21 -7 -45 -9 -53 -17 -64 -24 -257 -13 -375 8
-94 10 -108 28 -195 6 -30 13 -65 16 -78 9 -47 76 -218 115 -296 212 -425 604
-736 1064 -846 115 -28 226 -38 375 -36 219 4 358 37 568 136 90 43 234 129
288 173 114 92 159 132 231 205 85 87 223 259 223 279 0 13 20 3 -496 238
-483 220 -636 285 -668 285 l-26 0 0 -195 0 -195 -120 2 c-114 1 -120 2 -121
22 0 12 -1 103 -2 203 -1 100 -4 184 -7 186 -3 3 -41 8 -85 11 -100 9 -131 14
-175 28 -113 36 -182 143 -176 271 7 130 82 227 196 252 64 14 84 16 310 20
124 3 241 10 260 16 118 35 542 225 987 442 l133 64 -52 74 c-64 92 -238 268
-339 341 -194 143 -465 259 -679 291 -102 16 -332 30 -342 22z"/>
</g>
</svg>
