<svg version="1.1" id="Layer_1" xmlns="http://www.w3.org/2000/svg" xmlns:xlink="http://www.w3.org/1999/xlink" x="0px" y="0px"
   viewBox="0 0 326.4 343" style="enable-background:new 0 0 326.4 343;" xml:space="preserve">
<path fill="#FFFFFF" class="st0" d="M309,249.9c-29.4,44.3-80.2,80.4-133.4,80.4c-87,0-158.6-71.7-158.6-158.7S88.6,12.9,175.7,12.9
  c53.9,0,104.2,27.4,133.4,72.7c0,0-104.4,51.3-116.9,51.6c-4.1,0.1-14.5,0.4-21.7,0.3c-14.7,0-26,0.1-35.2,3.7
  c-19.4,8.6-20.8,42.3,2.4,51c7.6,2.6,10.7,1.6,18.4,2.8l8.8,0.7L165,237l24.5,0.4v-39.3l5.6,0.6C206.8,202.8,309,249.9,309,249.9"/>
</svg>